# xmcd
#
# Track frame offsets:
#  150
#  15036
#  34273
#  67000
#  85313
#  99207
#  111069
#  129651
#  146799
#  165362
#  175207
#  192210
#  206128
#  229321
#
# Disc length: 3286 seconds
#
# Revision: 0
# Processed by: cddbd v1.5.2PL0 Copyright (c) Steve Scherf et al.
# Submitted via: AltoMP3_Maker 3.0
#
DISCID=b90cd40e
DTITLE=Coco Briaval Gypsy Swing Quintet - L'age d'or de la musique manouche
DYEAR=1900
DGENRE=
TTITLE0=Minor Swing
TTITLE1=Stardust
TTITLE2=Caravan
TTITLE3=Niglo Swing
TTITLE4=Crépuscule Tzigane
TTITLE5=Nuage
TTITLE6=Coco Slow
TTITLE7=Verso Valse
TTITLE8=Tristesse De Chopin
TTITLE9=I found A New Baby
TTITLE10=Sables Eternels
TTITLE11=Improvisation N°2
TTITLE12=Mister Getz
TTITLE13=Johny Come Lately
EXTD=
EXTT0=
EXTT1=
EXTT2=
EXTT3=
EXTT4=
EXTT5=
EXTT6=
EXTT7=
EXTT8=
EXTT9=
EXTT10=
EXTT11=
EXTT12=
EXTT13=
PLAYORDER=
